# xmcd
#
# Track frame offsets: 
#        150
#        18720
#        36354
#        55204
#        74608
#        87566
#        102758
#        118459
#        132321
#        149715
#        164581
#
# Disc length: 2392 seconds
#
# Revision: 11
# Processed by: cddbd v1.5.2PL0 Copyright (c) Steve Scherf et al.
# Submitted via: ExactAudioCopy v1.1
#
DISCID=b209560b
DTITLE=George Strait - Somewhere Down In Texas
DYEAR=2005
DGENRE=Country
TTITLE0=If The Whole World Was A Honky Tonk
TTITLE1=Somewhere Down In Texas
TTITLE2=The Seashores Of Old Mexico
TTITLE3=You'll Be There
TTITLE4=High Tone Woman
TTITLE5=George Strait with Lee Ann Womack - Good News, Bad News (Duet 
TTITLE5=With Lee Ann Womack)
TTITLE6=Oh, What A Perfect Day
TTITLE7=Texas
TTITLE8=Ready For The End Of The World
TTITLE9=She Let Herself Go
TTITLE10=By The Light Of A Burning Bridge
EXTD=
EXTT0=
EXTT1=
EXTT2=
EXTT3=
EXTT4=
EXTT5=
EXTT6=
EXTT7=
EXTT8=
EXTT9=
EXTT10=
PLAYORDER=
